Coordinates
version=1
nRows=14
nColumns=40
inDegrees=yes

Units are S.I. units (second, meters, Newtons, ...)
Angles are in degrees.

endheader
time	pelvis_tilt	pelvis_list	pelvis_rotation	pelvis_tx	pelvis_ty	pelvis_tz	hip_flexion_r	hip_adduction_r	hip_rotation_r	knee_angle_r	knee_angle_r_beta	ankle_angle_r	subtalar_angle_r	mtp_angle_r	hip_flexion_l	hip_adduction_l	hip_rotation_l	knee_angle_l	knee_angle_l_beta	ankle_angle_l	subtalar_angle_l	mtp_angle_l	lumbar_extension	lumbar_bending	lumbar_rotation	arm_flex_r	arm_add_r	arm_rot_r	elbow_flex_r	pro_sup_r	wrist_flex_r	wrist_dev_r	arm_flex_l	arm_add_l	arm_rot_l	elbow_flex_l	pro_sup_l	wrist_flex_l	wrist_dev_l
      0.70000000	      0.24951804	     -5.97030127	      2.46801334	     -0.59109733	      0.89305027	      1.42586161	     20.60579511	      5.57846004	    -18.51252554	    -20.24876571	     -0.35340763	     -3.60611439	     -2.16089707	      3.33729943	     -8.01710718	      9.74778786	     10.82576270	    -34.96551138	     -0.61026330	     -6.45267537	     -6.66068019	    -10.12735334	     -7.86900440	      9.85643124	     -3.29538911	      2.52330030	     -9.65237480	     17.30488289	     13.63563175	     89.95437384	      0.00000000	      0.00000000	     11.44785200	      7.88897596	     -6.62930779	     30.28258079	     89.95437384	      0.00000000	      0.00000000
      0.71000000	      0.14682601	     -6.04344787	      2.27217079	     -0.58052033	      0.89451506	      1.42757135	     19.82473465	      5.85385907	    -18.49607721	    -20.06651347	     -0.35022673	     -2.87259871	     -1.62137135	      3.12184401	     -6.84324641	     10.09654717	     10.67607899	    -37.18375194	     -0.64897890	     -9.29095650	     -5.05203791	     -9.51362482	     -7.65915815	      9.88644265	     -2.87433140	      2.73137159	     -9.70343534	     17.49014019	     13.26175732	     89.95437384	      0.00000000	      0.00000000	     11.02694768	      7.61939001	     -6.89976078	     28.98278174	     89.95437384	      0.00000000	      0.00000000
      0.72000000	     -0.05077314	     -6.18663058	      2.13818580	     -0.57023841	      0.89550829	      1.42940746	     19.17515378	      6.17701278	    -18.65827280	    -19.89686093	     -0.34726573	     -2.16827409	     -0.90656143	      2.86548287	     -5.32994870	     10.54748302	     10.36602960	    -39.67661697	     -0.69248760	    -11.09533149	     -3.31444294	     -9.12600419	     -7.36666593	      9.96226446	     -2.46546168	      2.85616421	     -9.80470869	     17.71443394	     13.16407471	     89.95437384	      0.00000000	      0.00000000	     10.61782791	      7.44116154	     -7.40280271	     27.72548876	     89.95437384	      0.00000000	      0.00000000
      0.73000000	     -0.58988847	     -6.04796812	      2.08566439	     -0.56079945	      0.89565321	      1.43049046	     19.10303928	      5.93787882	    -19.35962269	    -20.10513291	     -0.35090077	     -1.43284644	      0.44968949	      2.25949313	     -3.19205651	     10.44559117	      9.57029729	    -42.40777280	     -0.74015526	    -10.84985431	     -0.47769874	     -9.23775491	     -6.76706664	      9.77565738	     -2.21965835	      3.02949937	     -9.99287973	     18.16058519	     13.16813400	     89.95437384	      0.00000000	      0.00000000	     10.26913713	      7.32155247	     -8.17219841	     26.51712341	     89.95437384	      0.00000000	      0.00000000
      0.74000000	     -0.45605723	     -6.41346657	      2.04198917	     -0.55051943	      0.89658072	      1.43263356	     18.04978112	      6.53273005	    -19.61100791	    -19.82993003	     -0.34609757	     -0.58479926	      1.20099044	      1.95146206	     -1.96402017	     11.22474008	      9.45848597	    -44.81243436	     -0.78212453	    -10.53169166	      1.42258246	     -9.17243817	     -6.84082585	     10.05208998	     -1.76750379	      3.22380005	    -10.08991365	     18.35479618	     13.11687588	     89.95437384	      0.00000000	      0.00000000	     10.02170078	      7.15796464	     -8.67282398	     25.17750361	     89.95437384	      0.00000000	      0.00000000
      0.75000000	     -0.50127088	     -6.58072481	      2.21121114	     -0.54097958	      0.89702135	      1.43392233	     17.32014975	      6.71902775	    -20.19603818	    -19.71568676	     -0.34410365	     -0.06007407	      2.14084476	      1.54410881	     -0.25818763	     11.59680613	      8.90374955	    -47.35561421	     -0.82651139	     -9.36663391	      4.22024677	     -9.15157178	     -6.77584728	     10.16240214	     -1.58180286	      3.40840461	    -10.32291804	     18.80457122	     13.41000524	     89.95437384	      0.00000000	      0.00000000	      9.81836898	      7.05156296	     -9.38307113	     23.93819897	     89.95437384	      0.00000000	      0.00000000
      0.76000000	     -0.08022780	     -6.58568142	      2.16707887	     -0.53124876	      0.89806951	      1.43563646	     16.07842905	      6.89193466	    -20.35274530	    -19.66346338	     -0.34319218	      0.57415454	      2.50377202	      1.34873712	      0.70355312	     11.96557908	      8.95744363	    -49.42904928	     -0.86269966	     -8.87053292	      5.20671559	     -9.15754846	     -7.28507617	     10.05471563	     -1.23814987	      3.92916066	    -10.33924404	     19.01888735	     13.19616924	     89.95437384	      0.00000000	      0.00000000	      9.64127866	      6.94395450	     -9.80614021	     22.64854328	     89.95437384	      0.00000000	      0.00000000
      0.77000000	     -0.03250244	     -6.73969496	      2.44740438	     -0.52179530	      0.89837682	      1.43649603	     15.28011014	      6.94905640	    -21.35109291	    -19.64448480	     -0.34286094	      1.44296387	      4.41367273	      0.22894521	      2.29614861	     12.15299960	      8.15238547	    -51.50600722	     -0.89894941	     -7.52911454	      7.86863920	     -9.56596267	     -7.28850075	     10.16883211	     -1.08786961	      4.10937190	    -10.74003034	     20.02397367	     13.63427139	     89.95437384	      0.00000000	      0.00000000	      9.54545437	      6.90705140	    -11.28373793	     21.32899329	     89.95437384	      0.00000000	      0.00000000
      0.78000000	      0.47046114	     -6.89545796	      2.45792473	     -0.51226145	      0.89948383	      1.43798084	     13.88958073	      7.33863019	    -21.41436340	    -19.37227668	     -0.33811001	      2.02089371	      4.79444038	     -0.00680750	      3.17034774	     12.58899238	      8.04495168	    -53.14070751	     -0.92748031	     -6.72541613	      8.41201288	     -9.72911962	     -7.88893297	     10.24185524	     -0.72679675	      4.67460837	    -10.82873440	     20.20119980	     13.51086645	     89.95437384	      0.00000000	      0.00000000	      9.48592696	      6.73513912	    -11.77173647	     19.90777536	     89.95437384	      0.00000000	      0.00000000
      0.79000000	      0.85439027	     -6.66121106	      2.30581203	     -0.50290644	      0.90041220	      1.43918316	     12.72892640	      7.25033832	    -21.38290732	    -19.34296054	     -0.33759835	      2.35889071	      4.81659211	     -0.09525555	      4.10067584	     12.49051664	      8.07768181	    -54.51935900	     -0.95154232	     -6.47862561	      8.45783567	     -9.71889209	     -8.43303187	      9.89485656	     -0.27728534	      5.20294503	    -10.94607865	     20.28773556	     13.55024608	     89.95437384	      0.00000000	      0.00000000	      9.18732974	      6.65542383	    -11.99051070	     19.13783512	     89.95437384	      0.00000000	      0.00000000
      0.80000000	      1.39263798	     -6.91644331	      2.42656690	     -0.49339713	      0.90159280	      1.44029790	     11.16704327	      7.80286656	    -21.24939930	    -18.79798923	     -0.32808680	      3.20319670	      5.39553235	     -0.36706125	      4.92090072	     12.80880783	      7.59094235	    -55.67525123	     -0.97171645	     -5.30286033	      8.67919523	    -10.01096181	     -8.99867894	     10.11167254	     -0.01575195	      5.82758390	    -11.08017760	     20.71813354	     13.37931018	     89.95437384	      0.00000000	      0.00000000	      9.26222248	      6.43042987	    -12.77426303	     17.45145677	     89.95437384	      0.00000000	      0.00000000
      0.81000000	      2.14860594	     -6.93926866	      2.42910062	     -0.48363409	      0.90305675	      1.44144199	      9.31342135	      8.06193807	    -21.35284637	    -18.19825266	     -0.31761943	      3.54110875	      6.03881652	     -1.00836552	      5.33668685	     12.90512252	      7.39681691	    -56.45560140	     -0.98533613	     -4.81853040	      7.82673157	    -10.64934066	     -9.83096469	     10.04922488	      0.45429730	      6.24079341	    -11.46057750	     22.08543214	     13.80690997	     89.95437384	      0.00000000	      0.00000000	      8.96941158	      6.59699520	    -14.70221804	     16.88927334	     89.95437384	      0.00000000	      0.00000000
      0.82000000	      2.43821599	     -6.80056412	      2.26107107	     -0.47435534	      0.90387040	      1.44248533	      8.22013415	      8.09613656	    -21.07454114	    -18.07684732	     -0.31550050	      4.06337362	      6.19275856	     -1.18167761	      6.32554079	     12.65526137	      7.17022741	    -57.15585827	     -0.99755791	     -4.07136791	      7.56210893	    -10.82084290	    -10.17022154	      9.81610307	      0.81643528	      6.95698068	    -11.52573554	     22.30677971	     13.55867749	     89.95437384	      0.00000000	      0.00000000	      8.63171393	      6.50844555	    -15.04567480	     16.09898775	     89.95437384	      0.00000000	      0.00000000
      0.83000000	      2.63622601	     -6.57250961	      2.01287798	     -0.46534137	      0.90455551	      1.44376503	      7.28884171	      7.99125444	    -20.92374356	    -18.03111561	     -0.31470234	      4.40647330	      6.18061096	     -1.26684350	      7.42737382	     12.30456599	      7.04547691	    -57.70164739	     -1.00708373	     -3.71836100	      7.17137948	    -10.86585208	    -10.48182490	      9.43896852	      1.29860844	      7.57141879	    -11.59410682	     22.41923083	     13.58523568	     89.95437384	      0.00000000	      0.00000000	      8.23133240	      6.51238597	    -15.25013853	     15.68208306	     89.95437384	      0.00000000	      0.00000000
